<?xml version="1.0" standalone="no"?>
<!DOCTYPE svg PUBLIC "-//W3C//DTD SVG 20010904//EN"
 "http://www.w3.org/TR/2001/REC-SVG-20010904/DTD/svg10.dtd">
<svg version="1.0" xmlns="http://www.w3.org/2000/svg"
 width="1024.000000pt" height="1024.000000pt" viewBox="0 0 1024.000000 1024.000000"
 preserveAspectRatio="xMidYMid meet">

<g transform="translate(0.000000,1024.000000) scale(0.100000,-0.100000)"
fill="#000000" stroke="none">
<path d="M4810 10229 c-1024 -62 -2009 -432 -2825 -1063 -338 -261 -700 -629
-965 -981 -430 -571 -743 -1257 -899 -1965 -223 -1016 -129 -2093 266 -3050
253 -614 604 -1144 1078 -1629 566 -579 1235 -1002 1992 -1261 1077 -369 2237
-370 3309 -6 744 253 1368 638 1933 1191 584 573 1001 1230 1261 1992 370
1082 370 2244 0 3326 -182 533 -446 1022 -794 1472 -260 337 -632 703 -981
965 -960 721 -2166 1082 -3375 1009z m995 -1279 c633 -54 1262 -293 1767 -673
806 -606 1295 -1492 1379 -2502 14 -172 6 -534 -16 -695 -34 -248 -86 -472
-161 -691 -396 -1158 -1395 -2030 -2594 -2264 -324 -63 -236 -60 -1925 -60
-1736 0 -1585 -7 -1760 79 -196 97 -332 258 -407 481 l-23 70 -3 1475 c-2 997
1 1519 8 1610 95 1188 788 2236 1843 2790 382 201 863 343 1282 379 143 12
470 13 610 1z"/>
<path d="M6380 8135 c-8 -2 -55 -9 -105 -15 -605 -82 -1138 -555 -1310 -1160
-47 -168 -48 -181 -54 -750 l-6 -545 -390 -5 -390 -5 -62 -29 c-74 -34 -154
-113 -185 -183 -29 -65 -37 -203 -14 -269 37 -109 117 -193 225 -236 53 -21
76 -22 403 -27 l346 -6 26 -24 c14 -14 30 -41 36 -60 13 -48 13 -720 0 -850
-22 -211 -104 -384 -251 -528 -82 -81 -138 -120 -235 -166 -141 -66 -216 -81
-394 -77 -399 8 -388 9 -462 -28 -77 -38 -130 -92 -166 -171 -22 -46 -26 -71
-27 -141 0 -77 3 -92 33 -152 77 -156 241 -240 531 -269 194 -20 463 15 661
86 490 176 866 575 1010 1069 60 207 62 226 67 794 l5 522 342 0 c376 0 430 5
519 53 265 140 254 529 -19 663 l-59 29 -350 5 c-372 5 -374 6 -414 56 -21 26
-21 36 -21 466 0 484 4 526 62 666 102 247 311 429 576 504 87 25 251 30 453
14 125 -10 189 -1 262 36 60 30 121 92 153 155 26 52 29 68 29 153 0 84 -3
102 -28 153 -90 182 -324 279 -667 276 -63 -1 -122 -3 -130 -4z"/>
</g>
</svg>
